<svg xmlns="http://www.w3.org/2000/svg" width="3840" height="2160" viewBox="0 0 3840 2160"><!-- ModalityOS wallpaper concept. CC0-1.0. --><defs><linearGradient id="s0" x1="0" y1="0" x2="1" y2="1"><stop offset="0" stop-color="#6f9dff" stop-opacity=".95"/><stop offset="1" stop-color="#6f9dff" stop-opacity=".25"/></linearGradient><linearGradient id="s1" x1="0" y1="0" x2="1" y2="1"><stop offset="0" stop-color="#a98cff" stop-opacity=".95"/><stop offset="1" stop-color="#a98cff" stop-opacity=".25"/></linearGradient><linearGradient id="s2" x1="0" y1="0" x2="1" y2="1"><stop offset="0" stop-color="#ff9fbf" stop-opacity=".95"/><stop offset="1" stop-color="#ff9fbf" stop-opacity=".25"/></linearGradient><linearGradient id="s3" x1="0" y1="0" x2="1" y2="1"><stop offset="0" stop-color="#ffb98f" stop-opacity=".95"/><stop offset="1" stop-color="#ffb98f" stop-opacity=".25"/></linearGradient><filter id="b1" x="-50%" y="-50%" width="200%" height="200%"><feGaussianBlur stdDeviation="220"/></filter><filter id="b2" x="-50%" y="-50%" width="200%" height="200%"><feGaussianBlur stdDeviation="60"/></filter><filter id="b3" x="-10%" y="-10%" width="120%" height="120%"><feGaussianBlur stdDeviation="8" edgeMode="duplicate"/></filter><filter id="grain"><feTurbulence type="fractalNoise" baseFrequency=".9" numOctaves="2" seed="4"/><feColorMatrix values="0 0 0 0 .5  0 0 0 0 .5  0 0 0 0 .5  0 0 0 .06 0"/></filter></defs><rect width="3840" height="2160" fill="#f1efff"/><ellipse cx="1300" cy="800" rx="1400" ry="800" fill="#a98cff" opacity=".25" filter="url(#b1)"/><path d="M -300 2300 C 600 1400, 1400 1300, 2200 1700 S 3600 2500, 4200 1900 L 4200 2500 L -300 2500 Z" fill="#6f9dff" opacity=".35" filter="url(#b2)" transform="translate(0 40)"/><path d="M -300 2300 C 600 1400, 1400 1300, 2200 1700 S 3600 2500, 4200 1900 L 4200 2500 L -300 2500 Z" fill="url(#s0)" style="mix-blend-mode:multiply" filter="url(#b3)"/><path d="M -300 1500 C 700 2200, 1700 2300, 2600 1600 S 3800 600, 4200 900 L 4200 2500 L -300 2500 Z" fill="#a98cff" opacity=".35" filter="url(#b2)" transform="translate(0 40)"/><path d="M -300 1500 C 700 2200, 1700 2300, 2600 1600 S 3800 600, 4200 900 L 4200 2500 L -300 2500 Z" fill="url(#s1)" style="mix-blend-mode:multiply" filter="url(#b3)"/><path d="M 2200 -300 C 2500 600, 3100 1100, 4200 1150 L 4200 -300 Z" fill="#ff9fbf" opacity=".35" filter="url(#b2)" transform="translate(0 40)"/><path d="M 2200 -300 C 2500 600, 3100 1100, 4200 1150 L 4200 -300 Z" fill="url(#s2)" style="mix-blend-mode:multiply" filter="url(#b3)"/><path d="M 2900 -300 C 2800 500, 3300 900, 4200 700 L 4200 -300 Z" fill="#ffb98f" opacity=".35" filter="url(#b2)" transform="translate(0 40)"/><path d="M 2900 -300 C 2800 500, 3300 900, 4200 700 L 4200 -300 Z" fill="url(#s3)" style="mix-blend-mode:multiply" filter="url(#b3)"/><rect width="3840" height="2160" filter="url(#grain)" opacity=".5"/></svg>